<svg width="200" height="200" viewBox="0 0 200 200" xmlns="http://www.w3.org/2000/svg">
  <rect width="200" height="200" fill="#000000"/>
  <g stroke="#00FFFF" stroke-width="4" fill="none" stroke-linecap="round" stroke-linejoin="round">
    <!-- Bulb shape -->
    <path d="M100,50 a30,40 0 1,1 -0.1,0" />
    <!-- Filament -->
    <path d="M90,90 Q100,100 110,90" />
    <!-- Base -->
    <line x1="85" y1="130" x2="115" y2="130"/>
    <line x1="85" y1="135" x2="115" y2="135"/>
    <line x1="85" y1="140" x2="115" y2="140"/>
    <!-- Radiating lines -->
    <line x1="100" y1="10" x2="100" y2="30"/>
    <line x1="170" y1="100" x2="150" y2="100"/>
    <line x1="100" y1="190" x2="100" y2="170"/>
    <line x1="30" y1="100" x2="50" y2="100"/>
    <line x1="140" y1="40" x2="125" y2="55"/>
    <line x1="140" y1="160" x2="125" y2="145"/>
    <line x1="60" y1="40" x2="75" y2="55"/>
    <line x1="60" y1="160" x2="75" y2="145"/>
  </g>
</svg>